<?xml version="1.0" encoding="UTF-8" standalone="no"?>
<!-- Created with Inkscape (http://www.inkscape.org/) -->

<svg
   width="189.77702mm"
   height="63.057899mm"
   viewBox="0 0 189.77702 63.057899"
   version="1.1"
   id="svg5"
   xml:space="preserve"
   xmlns="http://www.w3.org/2000/svg"
   xmlns:svg="http://www.w3.org/2000/svg"><defs
     id="defs2"><clipPath
       clipPathUnits="userSpaceOnUse"
       id="clipPath16843"><rect
         style="opacity:1;fill:#d40000;fill-opacity:1;stroke-width:0.264583"
         id="rect16845"
         width="118.87498"
         height="31.712656"
         x="72.540321"
         y="111.84882" /></clipPath><clipPath
       clipPathUnits="userSpaceOnUse"
       id="clipPath3711"><rect
         style="display:none;opacity:0.5;fill:#ffffff;fill-opacity:1;stroke-width:0.264583"
         id="rect3713"
         width="4.2992597"
         height="1.7126173"
         x="131.59987"
         y="58.943985" /></clipPath><clipPath
       clipPathUnits="userSpaceOnUse"
       id="clipPath3806"><rect
         style="display:none;fill:#ffffff;fill-opacity:1;stroke-width:0.264583"
         id="rect3808"
         width="0.57945096"
         height="0.23595661"
         x="157.00616"
         y="79.430786" /><path
         id="lpe_path-effect3810"
         style="fill:#ffffff;fill-opacity:1;stroke-width:0.264583"
         class="powerclip"
         d="m 125.69125,52.127391 h 38.49179 v 32.943303 h -38.49179 z" /></clipPath><clipPath
       clipPathUnits="userSpaceOnUse"
       id="clipPath3860"><rect
         style="display:none;opacity:0.56;fill:#ffffff;fill-opacity:1;stroke-width:0.264583"
         id="rect3862"
         width="4.0579696"
         height="2.2164454"
         x="131.8399"
         y="58.449917" /><path
         id="lpe_path-effect3864"
         style="opacity:0.56;fill:#ffffff;fill-opacity:1;stroke-width:0.264583"
         class="powerclip"
         d="m 125.69125,52.127391 h 38.49179 v 32.943303 h -38.49179 z" /></clipPath><clipPath
       clipPathUnits="userSpaceOnUse"
       id="clipath_lpe_path-effect3926"><rect
         style="display:none;opacity:0.56;fill:#ffffff;fill-opacity:1;stroke-width:0.264583"
         id="rect3928"
         width="4.0579696"
         height="2.2164454"
         x="131.8399"
         y="58.449917" /><path
         id="lpe_path-effect3926"
         style="opacity:0.56;fill:#ffffff;fill-opacity:1;stroke-width:0.264583"
         class="powerclip"
         d="m 125.69125,52.127391 h 38.49179 v 32.943303 h -38.49179 z" /></clipPath><clipPath
       clipPathUnits="userSpaceOnUse"
       id="clipPath1910"><path
         style="fill:#929695;fill-opacity:1;stroke-width:0.264583"
         d="m 142.10586,58.259974 c 0,0 -4.57374,3.216196 -4.59834,7.859295 -0.0246,4.643098 -0.0984,-14.291684 -0.0984,-14.291684 l 5.48358,0.113244 z"
         id="path1912" /></clipPath><clipPath
       clipPathUnits="userSpaceOnUse"
       id="clipPath3021"><path
         style="display:none;opacity:0.6;fill:#929695;fill-opacity:1;stroke-width:0.266074"
         d="m 142.92915,72.103281 c -0.007,1.687235 2.60585,1.719997 2.60585,1.719997 l 1.92691,0.01638 h -4.50044 z"
         id="path3023" /><path
         id="lpe_path-effect3025"
         style="opacity:0.6;fill:#929695;fill-opacity:1;stroke-width:0.266074"
         class="powerclip"
         d="m 137.92641,48.764397 h 39.88528 v 30.042277 h -39.88528 z m 5.00274,23.338884 0.0323,1.736377 h 4.50044 l -1.92691,-0.01638 c 0,0 -2.61285,-0.03276 -2.60585,-1.719997 z" /></clipPath><clipPath
       clipPathUnits="userSpaceOnUse"
       id="clipPath3033"><path
         style="display:none;opacity:0.6;fill:#929695;fill-opacity:1;stroke-width:0.264628"
         d="m 159.41432,78.000109 c 0.006,1.825786 -2.38201,1.861237 -2.38201,1.861237 l -1.76139,0.01773 h 4.11384 z"
         id="path3035" /><path
         id="lpe_path-effect3037"
         style="opacity:0.6;fill:#929695;fill-opacity:1;stroke-width:0.264628"
         class="powerclip"
         d="m 127.08031,53.179395 h 37.30884 v 31.688099 h -37.30884 z m 32.33401,24.820714 c 0.006,1.825786 -2.38201,1.861237 -2.38201,1.861237 l -1.76139,0.01773 h 4.11384 z" /></clipPath></defs><g
     id="layer2"
     transform="translate(-11.799093,-26.296486)"><ellipse
       style="opacity:1;fill:#d8166f;fill-opacity:1;stroke-width:0.319178;image-rendering:auto"
       id="path3731"
       ry="31.52895"
       rx="31.663115"
       cy="57.825436"
       cx="43.462208" /><ellipse
       style="opacity:1;fill:#ffffff;fill-opacity:1;stroke-width:0.066846;image-rendering:auto"
       id="path3731-3"
       ry="8.0602531"
       rx="5.4324312"
       cy="10.911054"
       cx="53.465599"
       transform="matrix(0.72927222,0.68422367,-0.71173594,0.70244712,0,0)" /></g><g
     id="layer3"
     transform="translate(-11.799093,-26.296486)"><g
       id="g9766"
       style="fill:#929695;fill-opacity:1"><g
         aria-label="S"
         id="text9669"
         style="font-size:27.7964px;font-family:SKYfontThick;-inkscape-font-specification:SKYfontThick;opacity:1;stroke-width:2.31635"><path
           d="m 105.33477,46.934267 q 0,3.196586 -2.50168,4.780981 -2.05693,1.306431 -5.475889,1.306431 H 86.210844 q -0.389149,0 -0.389149,-0.444742 v -2.279305 q 0,-1.695581 1.639987,-1.695581 h 10.312465 q 2.307103,0 2.307103,-1.473209 0,-1.362023 -2.307103,-1.890155 l -6.504358,-1.473209 q -5.892837,-1.334228 -5.892837,-5.865041 0,-3.057604 2.195916,-4.753184 2.001341,-1.556599 5.142334,-1.556599 H 104.3063 q 0.41695,0 0.41695,0.444743 v 2.08473 q 0,1.890155 -1.91795,1.890155 h -9.867727 q -2.08473,0 -2.08473,1.473209 0,1.167449 2.08473,1.890155 l 6.726729,1.47321 q 5.670468,1.250838 5.670468,6.087411 z"
           id="path3107" /></g><g
         aria-label="K"
         transform="scale(0.99445287,1.0055781)"
         id="text9723"
         style="font-size:27.7176px;font-family:SKYfontThick;-inkscape-font-specification:SKYfontThick;opacity:1;stroke-width:2.30977"><path
           d="m 128.60874,31.498314 q 0.36033,0 -0.0277,0.415764 l -8.95278,9.396267 7.12342,10.643558 q 0.44348,0.388046 0.44348,0.637505 -0.0277,0.194023 -0.44348,0.194023 h -4.60112 q -0.6375,0 -1.05327,-0.637505 -7.06799,-10.643558 -7.51147,-11.059322 4.90602,-5.016886 8.343,-8.786479 0.55435,-0.831528 1.69077,-0.831528 z m -15.24468,19.624061 q 0,1.663056 -1.66305,1.663056 h -3.35383 q -0.16631,0 -0.19403,-0.194023 V 33.133653 q 0,-1.663056 1.66306,-1.663056 h 3.35383 q 0.19402,0 0.19402,0.194023 z"
           id="path3110" /></g><g
         aria-label="Y"
         transform="scale(0.98714513,1.0130223)"
         id="text9727"
         style="font-size:27.6472px;font-family:SKYfontThick;-inkscape-font-specification:SKYfontThick;stroke-width:2.30393"><path
           d="m 150.20962,31.526985 q 0,0.165883 -0.13824,0.331767 l -8.9024,13.32595 v 5.640028 q 0,1.658832 -1.68648,1.658832 h -3.53884 q -0.19353,0 -0.22117,-0.19353 v -7.354155 l -8.9577,-12.994184 q -0.35941,-0.525297 -0.35941,-0.580591 0,-0.138236 0.41471,-0.138236 h 3.51119 q 1.5206,0 2.10119,0.829416 l 6.22062,8.957693 6.19297,-9.151223 q 0.30412,-0.635886 0.82942,-0.635886 h 4.17472 q 0.35942,0 0.35942,0.304119 z"
           id="path3113" /></g></g><g
       id="g227"><g
         id="g1270"
         style="fill:#929695;fill-opacity:1"><path
           d="m 94.370051,58.728088 c -5.561122,0 -10.686077,4.79783 -10.686077,10.686076 0,5.888246 5.124955,10.686076 10.686077,10.686076 2.835081,0 4.906872,-0.945027 6.142679,-2.580651 0,3.88915 -1.490238,7.051357 -6.578846,7.051357 -1.308499,0 -2.108137,0.835985 -2.108137,2.108137 0,1.308499 0.763291,2.108138 2.253526,2.108138 7.560217,0 10.686077,-5.343038 10.686077,-10.649729 V 61.017961 c 0,-1.090416 -0.76329,-1.81736 -1.78101,-1.81736 -1.52659,0 -2.14449,0.763291 -2.25353,2.362568 -1.308499,-1.453888 -3.780108,-2.835081 -6.360759,-2.835081 z m 0,17.192224 c -3.63472,0 -6.506149,-2.907775 -6.506149,-6.506148 0,-3.598373 2.871429,-6.506149 6.506149,-6.506149 3.525678,0 6.179019,2.907776 6.179019,6.506149 0,3.598373 -2.653341,6.506148 -6.179019,6.506148 z"
           id="path1135"
           style="font-size:36.3472px;font-family:Rimouski;-inkscape-font-specification:Rimouski;fill:#929695;fill-opacity:1;stroke-width:3.02892"
           transform="scale(1.0134187,0.98675899)" /><path
           style="fill:#929695;fill-opacity:1;stroke-width:0.270296"
           d="m 96.218937,83.459869 -6.204807,-0.03415 c 0,0 -0.974788,-0.130064 -1.000865,0.953719 -0.02609,1.083785 -0.0179,3.251685 -0.0179,3.251685 l 6.426365,-0.02218 z"
           id="path1265" /></g><g
         aria-label="a"
         transform="scale(1.0162519,0.98400801)"
         id="text3105"
         style="font-size:37.9486px;font-family:Rimouski;-inkscape-font-specification:Rimouski;fill:#929695;stroke-width:3.16238"><path
           d="m 128.14617,61.699131 c 0,-1.290252 -0.83486,-2.16307 -2.20101,-2.16307 -1.21436,0 -2.16307,0.872818 -2.16307,2.16307 -1.44205,-1.63179 -3.68102,-2.656402 -6.48922,-2.656402 -6.41331,0 -11.15688,5.047164 -11.15688,11.194837 0,6.147674 4.66767,11.11894 11.15688,11.11894 2.58051,0 5.12307,-1.328201 6.48922,-2.770248 v 0.113846 c 0,1.36615 0.94871,2.201019 2.16307,2.201019 1.36615,0 2.20101,-0.834869 2.20101,-2.201019 z m -10.8533,1.707687 c 3.68102,0 6.45127,3.035888 6.45127,6.830748 0,3.718963 -2.77025,6.754851 -6.45127,6.754851 -3.79486,0 -6.79279,-3.035888 -6.79279,-6.754851 0,-3.79486 2.99793,-6.830748 6.79279,-6.830748 z"
           id="path3116" /></g><g
         aria-label="e"
         transform="scale(1.0082642,0.99180355)"
         id="text3987"
         style="font-size:37.5548px;font-family:Rimouski;-inkscape-font-specification:Rimouski;opacity:1;fill:#929695;stroke-width:3.12957"><path
           d="m 170.87402,58.613385 c -6.08388,0 -11.04111,4.994788 -11.04111,11.078665 0,6.083878 4.95723,11.003556 11.04111,11.003556 3.07949,0 5.82099,-1.051534 7.77384,-3.192158 0.45066,-0.450657 0.56333,-1.013979 0.56333,-1.614856 0,-1.164199 -0.90132,-2.140623 -2.02796,-2.140623 -0.56333,0 -1.20176,0.300438 -1.68997,0.751096 -1.20175,1.201753 -2.77905,1.877739 -4.61924,1.877739 -2.92927,0 -5.82099,-2.103068 -6.34676,-4.919678 h 15.24725 c 1.35197,0 2.14062,-0.751096 2.14062,-2.215733 0,-5.708329 -4.99479,-10.628008 -11.04111,-10.628008 z m 0,4.318802 c 2.89172,0 5.78344,2.140623 6.30921,4.957233 h -12.61842 c 0.60088,-2.779055 3.37994,-4.957233 6.30921,-4.957233 z"
           id="path4541"
           style="display:inline" /></g><g
         aria-label="s"
         id="text262"
         style="font-size:44.2654px;font-family:'DIN Next LT Arabic';-inkscape-font-specification:'DIN Next LT Arabic';fill:#929695;stroke-width:3.68877"><path
           d="m 192.63453,80.253613 q -3.27564,0 -5.57744,-1.06237 -2.25754,-1.06237 -3.5855,-2.301801 -0.30986,-0.309858 0,-0.619715 l 2.52313,-2.655924 q 0.30985,-0.309858 0.61971,0 1.1509,1.062369 2.83299,1.770616 1.72635,0.663981 3.40843,0.663981 1.99195,0 2.96578,-0.708247 0.97384,-0.708246 0.97384,-1.814881 0,-0.973839 -0.75251,-1.549289 -0.70824,-0.57545 -2.78872,-0.796777 l -2.3018,-0.221327 q -3.27564,-0.354124 -4.91346,-1.947678 -1.63782,-1.593554 -1.63782,-4.338009 0,-3.098578 2.12474,-4.91346 2.12474,-1.814881 6.15289,-1.814881 2.52313,0 4.55934,0.752512 2.03621,0.708246 3.4527,1.859147 0.35412,0.265592 0.0885,0.619715 l -2.16901,2.611659 q -0.26559,0.309858 -0.61971,0.08853 -1.0181,-0.708247 -2.52313,-1.239432 -1.46076,-0.531184 -3.05431,-0.531184 -1.59356,0 -2.4346,0.619715 -0.79678,0.619716 -0.79678,1.593555 0,0.929573 0.70825,1.505023 0.70825,0.531185 2.78872,0.752512 l 2.3018,0.221327 q 3.36417,0.354123 4.95773,1.991943 1.63782,1.593554 1.63782,4.249478 0,3.187109 -2.25754,5.223318 -2.25753,1.991943 -6.68407,1.991943 z"
           id="path1023" /></g><g
         id="g3031"
         clip-path="url(#clipPath3033)"><g
           aria-label="m"
           transform="matrix(0.91378897,0,0,1.0821175,1.4757331,0)"
           id="g1256"
           style="font-size:39.5303px;font-family:'All Round Gothic W01';-inkscape-font-specification:'All Round Gothic W01';display:inline;opacity:1;fill:#929695;fill-opacity:1;stroke-width:3.2942"
           clip-path="url(#clipPath3021)"><path
             id="path1254"
             clip-path="none"
             style="fill:#929695;fill-opacity:1"
             d="m 151.10889,53.764397 c -1.15933,6e-5 -2.23972,0.184593 -3.24098,0.553479 -1.00144,0.342596 -1.87141,0.882907 -2.6093,1.620802 -0.71155,0.711542 -1.27773,1.6342 -1.69939,2.767398 -0.42162,1.106841 -0.63281,2.424177 -0.63281,3.952674 v 9.737228 c 0.003,-0.0024 0.006,-0.0038 0.01,-0.0038 0.009,-1.69e-4 0.0164,0.0074 0.0147,0.02149 -0.004,0.03323 -0.008,0.06666 -0.0187,0.09885 0.0623,0.02469 0.10851,0.09484 0.0916,0.205824 -0.008,0.04614 -0.003,0.0229 -0.0119,0.06972 -0.008,0.03431 -0.0168,0.0685 -0.0277,0.102195 0.0425,0.04342 0.0752,0.10677 0.0854,0.193408 0.01,0.08504 0.0257,0.169413 0.0464,0.253101 0.0208,0.100693 0.0334,0.202521 0.0605,0.302288 0.0177,0.06515 0.0181,0.121365 0.007,0.16762 h 4.44723 V 62.65875 c 0,-1.607558 0.36882,-2.75364 1.10672,-3.438832 0.73788,-0.711541 1.6867,-1.067322 2.84625,-1.067322 1.1332,0 2.06877,0.355781 2.80667,1.067322 0.76423,0.711545 1.14631,1.857628 1.14631,3.438832 v 11.147908 h 4.70398 V 62.65875 c 0,-1.581204 0.36882,-2.727287 1.10672,-3.438832 0.73788,-0.711541 1.67346,-1.067322 2.80666,-1.067322 1.15955,0 2.10836,0.355781 2.84626,1.067322 0.73788,0.685192 1.10671,1.831274 1.10671,3.438832 v 11.147908 h 3.18161 c 0.0567,-0.03459 0.14078,-0.05654 0.25222,-0.05444 0.0918,0.0018 0.0447,6.34e-4 0.14025,0.0029 0.1786,0.0045 0.35763,0.01028 0.53611,0.01767 0.0987,0.0035 0.19746,0.006 0.29464,-0.01289 0.0311,-0.006 0.0644,-0.01005 0.0882,-0.02961 0.0436,-0.04698 0.0218,-0.100758 0.0153,-0.157591 -0.017,-0.127655 -0.0401,-0.25468 -0.0549,-0.382517 -0.023,-0.199079 0.0928,-0.304574 0.21264,-0.303244 0.0129,1.43e-4 0.0256,0.0017 0.0384,0.0043 V 62.65875 c 0,-1.528497 -0.21115,-2.845833 -0.63281,-3.952674 -0.42165,-1.133198 -1.00164,-2.055856 -1.73954,-2.767398 -0.71155,-0.737895 -1.56772,-1.278206 -2.56915,-1.620802 -1.00143,-0.368946 -2.08199,-0.553479 -3.24155,-0.553479 -1.50215,0 -2.833,0.303126 -3.99256,0.909253 -1.1332,0.579778 -2.04229,1.423211 -2.72749,2.530056 h -0.0792 c -0.71154,-1.106845 -1.64711,-1.950278 -2.80667,-2.530056 -1.13303,-0.606049 -2.43726,-0.909175 -3.91282,-0.909253 z" /></g></g></g></g></svg>
